<svg width="188" height="52" viewBox="0 0 188 52" fill="none" xmlns="http://www.w3.org/2000/svg">
<path d="M73.7695 20.2738C73.7695 17.3241 74.8131 14.8307 76.9002 12.7936C79.0007 10.7433 81.5531 9.7182 84.5575 9.7182C86.4851 9.67852 88.2797 10.1349 89.9415 11.0873C91.6165 12.0396 92.9326 13.3359 93.8897 14.9762C94.8602 16.6164 95.3255 18.3823 95.2856 20.2738C95.3255 22.1653 94.8602 23.9312 93.8897 25.5714C92.9326 27.1984 91.6165 28.4881 89.9415 29.4405C88.2797 30.3929 86.4851 30.8492 84.5575 30.8096C82.5634 30.8096 80.7421 30.3466 79.0937 29.4207C77.4586 28.4947 76.1558 27.2183 75.1853 25.5913C74.2415 23.9775 73.7695 22.205 73.7695 20.2738ZM78.8744 20.2738C78.8744 21.9008 79.4128 23.2632 80.4896 24.3611C81.5929 25.459 82.9423 26.0079 84.5375 26.0079C86.1461 26.0079 87.4821 25.459 88.5456 24.3611C89.6224 23.2632 90.1608 21.9008 90.1608 20.2738C90.1608 18.6204 89.6224 17.2513 88.5456 16.1666C87.4821 15.0688 86.1461 14.5198 84.5375 14.5198C82.9157 14.5198 81.5664 15.0688 80.4896 16.1666C79.4128 17.2513 78.8744 18.6204 78.8744 20.2738Z" fill="#233140"/>
<path d="M164.148 20.2738C164.148 17.3241 165.192 14.8307 167.279 12.7936C169.38 10.7433 171.932 9.7182 174.936 9.7182C176.864 9.67852 178.659 10.1349 180.32 11.0873C181.995 12.0396 183.311 13.3359 184.269 14.9762C185.239 16.6164 185.704 18.3823 185.665 20.2738C185.704 22.1653 185.239 23.9312 184.269 25.5714C183.311 27.1984 181.995 28.4881 180.32 29.4405C178.659 30.3929 176.864 30.8492 174.936 30.8096C172.942 30.8096 171.121 30.3466 169.473 29.4207C167.837 28.4947 166.535 27.2183 165.564 25.5913C164.62 23.9775 164.148 22.205 164.148 20.2738ZM169.253 20.2738C169.253 21.9008 169.792 23.2632 170.868 24.3611C171.972 25.459 173.321 26.0079 174.916 26.0079C176.525 26.0079 177.861 25.459 178.925 24.3611C180.001 23.2632 180.54 21.9008 180.54 20.2738C180.54 18.6204 180.001 17.2513 178.925 16.1666C177.861 15.0688 176.525 14.5198 174.916 14.5198C173.295 14.5198 171.945 15.0688 170.868 16.1666C169.792 17.2513 169.253 18.6204 169.253 20.2738Z" fill="#233140"/>
<path d="M165.106 34.6406C166.695 36.0345 169.823 37.626 173.458 38.0347C177.015 38.4344 180.924 37.6938 184.354 34.6495L187.398 38.0386C182.829 42.0939 177.552 43.0676 172.944 42.5497C168.416 42.0406 164.402 40.0824 162.082 38.0474L165.106 34.6406Z" fill="#233140"/>
<path d="M144.906 10.2168H162.121V14.156H155.941V29.5549H150.885V14.156H144.906V10.2168Z" fill="#233140"/>
<path d="M136.273 16.623L126.413 29.5549H121.363V10.2168H126.413V22.8701L136.273 10.2168H141.363V29.5549H136.273V16.623Z" fill="#233140"/>
<path d="M108.094 18.2544C109.126 18.2544 109.987 18.1218 110.675 17.8565C111.363 17.5647 111.708 16.9546 111.708 16.0262C111.708 15.4956 111.575 15.0845 111.31 14.7927C111.046 14.4744 110.688 14.2489 110.238 14.1162C109.815 13.9571 109.298 13.8642 108.69 13.8377C108.107 13.7847 107.485 13.7581 106.823 13.7581H104.44V18.2544H108.094ZM104.44 26.0136H107.3C108.014 26.0136 108.69 26.0003 109.325 25.9738C109.96 25.9472 110.516 25.8677 110.993 25.735C111.496 25.5759 111.88 25.3504 112.144 25.0586C112.436 24.7403 112.581 24.2893 112.581 23.7057C112.581 23.1221 112.436 22.6712 112.144 22.3528C111.88 22.0345 111.496 21.7958 110.993 21.6366C110.516 21.4775 109.96 21.3846 109.325 21.3581C108.69 21.3316 108.014 21.3183 107.3 21.3183H104.44V26.0136ZM99.4766 29.5549V10.2168H109.245C111.681 10.2168 113.534 10.6943 114.805 11.6492C116.076 12.5777 116.711 13.8377 116.711 15.4293C116.711 16.1456 116.592 16.7424 116.354 17.2199C116.142 17.6974 115.838 18.0953 115.44 18.4136C115.043 18.7319 114.58 18.9972 114.051 19.2094C113.548 19.3951 113.005 19.5675 112.422 19.7267C113.137 19.7797 113.812 19.8991 114.448 20.0848C115.083 20.2705 115.639 20.549 116.115 20.9204C116.618 21.2918 117.002 21.7693 117.267 22.3528C117.558 22.9099 117.704 23.5863 117.704 24.3822C117.704 25.9472 117.002 27.2073 115.599 28.1622C114.223 29.0907 112.264 29.5549 109.722 29.5549H99.4766Z" fill="#233140"/>
<path d="M41.1087 16.623L31.2492 29.5549H26.1992V10.2168H31.2492V22.8701L41.1087 10.2168H46.1987V29.5549H41.1087V16.623Z" fill="#233140"/>
<path d="M0 0H10.1237C11.7392 0 12.4572 0.125237 13.6451 0.375709C14.8331 0.598352 15.9079 1.00189 16.8696 1.58633C17.8312 2.14294 18.6091 2.90828 19.2031 3.88234C19.8253 4.85641 20.1364 6.09486 20.1364 7.5977C20.1364 9.18403 19.8982 10.4489 18.9191 11.7334C17.94 12.8573 16.9609 13.4996 15.6979 13.943V14.0265C16.603 14.1657 17.4374 14.4301 18.2011 14.8197C18.9931 15.1815 19.6719 15.6685 20.2376 16.2808C20.8316 16.8652 21.2841 17.5749 21.5953 18.4098C21.9347 19.2169 22.1044 20.1214 22.1044 21.1233C22.1044 22.5983 21.8074 23.8646 21.2134 24.9221C20.6195 25.9797 19.7992 26.8563 18.7527 27.5521C17.7344 28.22 16.5323 28.721 15.1464 29.0549C13.7887 29.3889 12.3321 29.5559 10.7764 29.5559H0V0ZM5.43064 11.9103H9.57215C10.2793 11.9103 10.944 11.8408 11.5662 11.7016C12.1885 11.5346 12.7552 11.3973 13.2078 11.0912C13.6886 10.7572 14.0237 10.5173 14.2815 10.0607C14.5644 9.55975 14.7058 8.94748 14.7058 8.22388C14.7058 6.88803 14.1825 5.92788 13.136 5.34344C12.1178 4.73117 10.7601 4.42503 9.06303 4.42503H5.43064V11.9103ZM5.43064 25.0474H10.14C10.932 25.0474 11.7098 24.9778 12.4735 24.8386C13.2372 24.6995 13.916 24.4629 14.51 24.129C15.104 23.795 15.5848 23.3497 15.9525 22.7931C16.3202 22.2087 16.504 21.499 16.504 20.6641C16.504 19.1334 15.9525 18.0341 14.8494 17.3662C13.7746 16.6982 12.2755 16.3643 10.3522 16.3643H5.43064V25.0474Z" fill="#233140"/>
<path d="M59.2186 10.2168H63.0911L69.7746 25.2236H72.3897V32.5686H67.8095V28.9163H54.2643V32.5686H49.6055V25.2236H52.2205L59.2186 10.2168ZM56.9383 25.2236H65.0568L61.0074 15.7559L56.9383 25.2236Z" fill="#233140"/>
<path d="M132.469 44.6631H133.786V47.1084H135.514C136.153 47.1084 136.665 47.294 137.052 47.665C137.439 48.0361 137.632 48.5239 137.632 49.1285C137.632 49.7372 137.439 50.2271 137.052 50.5982C136.665 50.9693 136.153 51.1548 135.514 51.1548H132.469V44.6631ZM135.375 50.0041C135.678 50.0041 135.913 49.9249 136.081 49.7664C136.249 49.608 136.333 49.387 136.333 49.1035C136.333 48.8325 136.249 48.6177 136.081 48.4593C135.913 48.3009 135.678 48.2217 135.375 48.2217H133.786V50.0041H135.375Z" fill="#233140"/>
<path d="M124.293 49.9228H124.501C124.64 49.9228 124.768 49.9123 124.886 49.8915C125.007 49.8706 125.117 49.8081 125.213 49.7039C125.314 49.5955 125.4 49.4329 125.472 49.2161C125.548 48.9992 125.611 48.697 125.661 48.3092C125.716 47.9173 125.756 47.4253 125.781 46.8333C125.806 46.237 125.819 45.5136 125.819 44.6631H130.244V51.1548H128.933V45.8889H127.073C127.073 46.6769 127.05 47.3544 127.004 47.9215C126.962 48.4885 126.899 48.9659 126.815 49.3536C126.735 49.7414 126.63 50.0562 126.499 50.298C126.373 50.5357 126.226 50.717 126.058 50.8421C125.89 50.9672 125.701 51.0506 125.491 51.0923C125.281 51.134 125.049 51.1548 124.797 51.1548H124.293V49.9228Z" fill="#233140"/>
<path d="M120.684 51.2291C120.331 51.2291 119.994 51.1791 119.675 51.079C119.528 51.0332 119.368 50.9602 119.196 50.8602C119.04 50.7934 118.887 50.6955 118.736 50.5662C118.45 50.3077 118.225 49.97 118.061 49.553C117.872 49.1444 117.777 48.6024 117.777 47.927C117.777 47.2682 117.859 46.7345 118.023 46.3259C118.196 45.8715 118.406 45.5296 118.654 45.3003C118.906 45.0543 119.198 44.8708 119.53 44.7499C119.841 44.6373 120.156 44.5811 120.476 44.5811C121.224 44.5977 121.856 44.8416 122.373 45.3128C122.89 45.7923 123.157 46.4635 123.174 47.3266V48.4023H119.095C119.095 48.9235 119.246 49.3196 119.549 49.5906C119.839 49.8658 120.209 50.0033 120.658 50.0033C121.192 50.0033 121.669 49.7928 122.089 49.3717L123.048 50.1785C122.367 50.8873 121.579 51.2375 120.684 51.2291ZM121.856 47.3266C121.839 46.8304 121.703 46.4489 121.446 46.1821C121.194 45.9361 120.871 45.8131 120.476 45.8131C120.08 45.8131 119.757 45.9361 119.505 46.1821C119.257 46.4489 119.12 46.8304 119.095 47.3266H121.856Z" fill="#233140"/>
<path d="M113.47 51.2296C112.805 51.2296 112.265 51.0774 111.849 50.7731C111.433 50.4645 111.139 50.0539 110.967 49.541C110.912 49.3951 110.872 49.2283 110.847 49.0407C110.822 48.8531 110.801 48.6571 110.784 48.4528C110.767 48.2485 110.757 48.0442 110.752 47.8399C110.748 47.6314 110.746 47.4376 110.746 47.2583V46.7642C110.746 46.414 110.752 46.0742 110.765 45.7448C110.778 45.4154 110.815 45.1027 110.878 44.8067C110.946 44.5065 111.042 44.2292 111.168 43.9749C111.299 43.7164 111.475 43.4829 111.698 43.2744C111.879 43.116 112.07 42.9868 112.272 42.8867C112.478 42.7866 112.69 42.7095 112.908 42.6553C113.127 42.6011 113.348 42.5594 113.57 42.5302C113.793 42.501 114.014 42.4718 114.232 42.4426C114.367 42.426 114.476 42.3864 114.56 42.3238C114.648 42.2613 114.703 42.1654 114.724 42.0361H116.067C115.995 42.9826 115.552 43.5204 114.737 43.6497C114.527 43.683 114.318 43.7101 114.113 43.731C113.907 43.7518 113.703 43.7831 113.501 43.8248C113.299 43.8623 113.108 43.9186 112.927 43.9937C112.747 44.0645 112.579 44.1667 112.423 44.3001C112.225 44.4794 112.08 44.6941 111.988 44.9443C111.9 45.1903 111.851 45.4196 111.843 45.6322H111.881C112.028 45.3779 112.265 45.1611 112.593 44.9818C112.925 44.8025 113.312 44.7129 113.753 44.7129C114.615 44.7129 115.237 44.9922 115.619 45.5509C116.002 46.1096 116.193 46.906 116.193 47.94C116.193 48.5028 116.14 48.9844 116.035 49.3847C115.934 49.7808 115.762 50.1227 115.518 50.4103C115.296 50.6772 115.012 50.8815 114.667 51.0232C114.323 51.1608 113.923 51.2296 113.47 51.2296ZM113.457 49.935C113.68 49.935 113.881 49.8954 114.062 49.8162C114.243 49.737 114.394 49.6244 114.516 49.4785C114.663 49.3075 114.76 49.1012 114.806 48.8593C114.852 48.6133 114.875 48.3152 114.875 47.965C114.875 47.6064 114.852 47.3 114.806 47.0456C114.76 46.7871 114.663 46.5724 114.516 46.4015C114.394 46.2639 114.243 46.1576 114.062 46.0825C113.881 46.0075 113.68 45.9699 113.457 45.9699C113.234 45.9699 113.032 46.0096 112.852 46.0888C112.671 46.168 112.524 46.2806 112.41 46.4265C112.263 46.5974 112.169 46.8122 112.127 47.0707C112.085 47.325 112.064 47.6314 112.064 47.99C112.064 48.3986 112.097 48.7238 112.165 48.9657C112.232 49.2033 112.339 49.3993 112.486 49.5535C112.608 49.6744 112.753 49.7683 112.921 49.835C113.089 49.9017 113.268 49.935 113.457 49.935Z" fill="#233140"/>
<path d="M106.473 51.2291C106.12 51.2291 105.783 51.1791 105.464 51.079C105.317 51.0332 105.157 50.9602 104.985 50.8602C104.829 50.7934 104.676 50.6955 104.525 50.5662C104.239 50.3077 104.014 49.97 103.85 49.553C103.661 49.1444 103.566 48.6024 103.566 47.927C103.566 47.2682 103.648 46.7345 103.812 46.3259C103.985 45.8715 104.195 45.5296 104.443 45.3003C104.695 45.0543 104.987 44.8708 105.319 44.7499C105.63 44.6373 105.945 44.5811 106.265 44.5811C107.013 44.5977 107.645 44.8416 108.162 45.3128C108.679 45.7923 108.946 46.4635 108.963 47.3266V48.4023H104.884C104.884 48.9235 105.035 49.3196 105.338 49.5906C105.628 49.8658 105.998 50.0033 106.447 50.0033C106.981 50.0033 107.458 49.7928 107.878 49.3717L108.837 50.1785C108.156 50.8873 107.368 51.2375 106.473 51.2291ZM107.645 47.3266C107.628 46.8304 107.492 46.4489 107.235 46.1821C106.983 45.9361 106.66 45.8131 106.265 45.8131C105.87 45.8131 105.546 45.9361 105.294 46.1821C105.046 46.4489 104.909 46.8304 104.884 47.3266H107.645Z" fill="#233140"/>
<path d="M95.1641 44.6631H96.469L98.4297 48.5281L100.384 44.6631H101.67V51.1548H100.352V46.9896L98.8457 49.9665H98.0199L96.4816 46.9896V51.1548H95.1641V44.6631Z" fill="#233140"/>
<path d="M83.8945 49.9228H84.1908C84.3716 49.9228 84.5144 49.8998 84.6195 49.854C84.7288 49.8081 84.8149 49.7164 84.878 49.5788L85.1239 49.0159C85.1659 48.895 85.2163 48.7908 85.2752 48.7032C85.3382 48.6115 85.4286 48.5281 85.5462 48.4531C85.1344 48.3822 84.8065 48.182 84.5628 47.8527C84.3232 47.5191 84.2034 47.1084 84.2034 46.6206C84.2034 46.0077 84.3947 45.5282 84.7771 45.1822C85.1638 44.8361 85.6828 44.6631 86.3343 44.6631H89.3288V51.1548H88.0112V48.6594H87.4816C87.1664 48.6594 86.9332 48.7074 86.7819 48.8033C86.6306 48.895 86.494 49.0847 86.3721 49.3724L86.0758 50.0916C86.0001 50.2876 85.914 50.4523 85.8173 50.5857C85.7249 50.7191 85.6177 50.8296 85.4958 50.9172C85.3739 51.0006 85.2289 51.061 85.0608 51.0985C84.8969 51.1361 84.7015 51.1548 84.4745 51.1548H83.8945V49.9228ZM88.0112 47.5837V45.8389H86.4793C86.1514 45.8389 85.9056 45.9181 85.7417 46.0765C85.5778 46.2349 85.4958 46.4497 85.4958 46.7207C85.4958 47.2961 85.8236 47.5837 86.4793 47.5837H88.0112Z" fill="#233140"/>
<path d="M79.259 51.2298C78.5361 51.2214 77.9729 51.0296 77.5694 50.6544C77.1534 50.2875 76.9453 49.8184 76.9453 49.2472C76.9453 48.701 77.126 48.2487 77.4875 47.8901C77.8405 47.5315 78.3701 47.3439 79.0761 47.3272H80.8981V46.6455C80.9065 46.0743 80.4589 45.7971 79.5553 45.8137C79.2443 45.8137 78.9858 45.8471 78.7798 45.9138C78.5823 45.993 78.4268 46.1264 78.3133 46.3141L77.2794 45.5323C77.7796 44.8819 78.5172 44.565 79.4922 44.5817C80.316 44.5733 80.9737 44.7276 81.4654 45.0445C81.9488 45.3614 82.1988 45.9201 82.2156 46.7206V51.1547H80.8981V50.5793H80.8728C80.751 50.8003 80.5618 50.9629 80.3055 51.0672C80.0701 51.1756 79.7213 51.2298 79.259 51.2298ZM79.4229 50.004C79.9776 50.0206 80.3664 49.956 80.5892 49.8101C80.7951 49.6725 80.8981 49.3598 80.8981 48.872V48.4029H79.322C78.5487 48.4196 78.1704 48.6802 78.1872 49.1847C78.1872 49.4057 78.286 49.5933 78.4835 49.7475C78.6811 49.9185 78.9942 50.004 79.4229 50.004Z" fill="#233140"/>
<path d="M70.3906 44.6631H71.7082V47.2085H72.326C72.5614 47.2085 72.7568 47.1585 72.9123 47.0584C73.072 46.9542 73.1876 46.8124 73.259 46.6331L73.568 45.7638C73.7066 45.3719 73.8958 45.0904 74.1353 44.9195C74.3749 44.7486 74.7111 44.6631 75.144 44.6631H75.579V45.8389H75.3899C75.2596 45.8389 75.1503 45.8451 75.0621 45.8576C74.978 45.8701 74.9066 45.8972 74.8477 45.9389C74.7931 45.9764 74.7468 46.0306 74.709 46.1015C74.6712 46.1724 74.6313 46.2683 74.5892 46.3892L74.3686 47.0334C74.3013 47.2293 74.2047 47.3836 74.0786 47.4962C73.9525 47.6046 73.8159 47.6838 73.6688 47.7338C73.8958 47.8047 74.0765 47.911 74.211 48.0528C74.3497 48.1904 74.4674 48.378 74.564 48.6157L74.8729 49.4099C74.915 49.5225 74.9549 49.6142 74.9927 49.6851C75.0305 49.7518 75.0747 49.8039 75.1251 49.8415C75.1797 49.879 75.2428 49.9061 75.3142 49.9228C75.3899 49.9394 75.4886 49.9478 75.6105 49.9478H75.9068V51.1548H75.4277C74.9528 51.1548 74.5892 51.0673 74.3371 50.8921C74.0891 50.717 73.8853 50.4168 73.7256 49.9916L73.3599 49.066C73.3011 48.9117 73.2275 48.7949 73.1393 48.7157C73.0552 48.6323 72.9627 48.5698 72.8619 48.5281C72.7652 48.4864 72.6643 48.4614 72.5593 48.4531C72.4584 48.4447 72.3554 48.4405 72.2504 48.4405H71.7082V51.1548H70.3906V44.6631Z" fill="#233140"/>
<path d="M64.6289 44.6631H68.878V45.8889H65.9465V51.1548H64.6289V44.6631Z" fill="#233140"/>
<path d="M60.2422 51.2291C59.8891 51.2291 59.5529 51.1791 59.2335 51.079C59.0864 51.0332 58.9267 50.9602 58.7544 50.8602C58.5989 50.7934 58.4455 50.6955 58.2942 50.5662C58.0084 50.3077 57.7835 49.97 57.6196 49.553C57.4305 49.1444 57.3359 48.6024 57.3359 47.927C57.3359 47.2682 57.4179 46.7345 57.5818 46.3259C57.7541 45.8715 57.9643 45.5296 58.2122 45.3003C58.4644 45.0543 58.7565 44.8708 59.0885 44.7499C59.3995 44.6373 59.7147 44.5811 60.0341 44.5811C60.7822 44.5977 61.4148 44.8416 61.9317 45.3128C62.4487 45.7923 62.7155 46.4635 62.7324 47.3266V48.4023H58.6535C58.6535 48.9235 58.8048 49.3196 59.1074 49.5906C59.3974 49.8658 59.7673 50.0033 60.217 50.0033C60.7507 50.0033 61.2277 49.7928 61.648 49.3717L62.6063 50.1785C61.9254 50.8873 61.1374 51.2375 60.2422 51.2291ZM61.4148 47.3266C61.398 46.8304 61.2614 46.4489 61.005 46.1821C60.7528 45.9361 60.4292 45.8131 60.0341 45.8131C59.6391 45.8131 59.3155 45.9361 59.0633 46.1821C58.8153 46.4489 58.6787 46.8304 58.6535 47.3266H61.4148Z" fill="#233140"/>
<path d="M49.4805 49.9228H49.6885C49.8272 49.9228 49.9554 49.9123 50.0731 49.8915C50.1949 49.8706 50.3042 49.8081 50.4009 49.7039C50.5018 49.5955 50.5879 49.4329 50.6594 49.2161C50.735 48.9992 50.7981 48.697 50.8485 48.3092C50.9031 47.9173 50.943 47.4253 50.9683 46.8333C50.9935 46.237 51.0061 45.5136 51.0061 44.6631H55.4317V51.1548H54.1204V45.8889H52.2606C52.2606 46.6769 52.2375 47.3544 52.1913 47.9215C52.1493 48.4885 52.0862 48.9659 52.0022 49.3536C51.9223 49.7414 51.8172 50.0562 51.6869 50.298C51.5609 50.5357 51.4138 50.717 51.2457 50.8421C51.0775 50.9672 50.8884 51.0506 50.6783 51.0923C50.4681 51.134 50.237 51.1548 49.9848 51.1548H49.4805V49.9228Z" fill="#233140"/>
</svg>
