<svg width="189" height="53" viewBox="0 0 189 53" fill="none" xmlns="http://www.w3.org/2000/svg">
<path d="M74.1641 20.7201C74.1641 17.7125 75.2132 15.1702 77.3115 13.0932C79.4232 11.0027 81.9892 9.95751 85.0097 9.95751C86.9476 9.91704 88.7519 10.3823 90.4225 11.3534C92.1065 12.3245 93.4296 13.6462 94.3919 15.3186C95.3675 16.9909 95.8353 18.7914 95.7952 20.7201C95.8353 22.6487 95.3675 24.4492 94.3919 26.1216C93.4296 27.7805 92.1065 29.0955 90.4225 30.0665C88.7519 31.0376 86.9476 31.5029 85.0097 31.4624C83.005 31.4624 81.174 30.9904 79.5167 30.0463C77.8728 29.1022 76.5631 27.8007 75.5874 26.1418C74.6385 24.4964 74.1641 22.6892 74.1641 20.7201ZM79.2962 20.7201C79.2962 22.379 79.8375 23.7681 80.92 24.8875C82.0293 26.0069 83.3859 26.5667 84.9896 26.5667C86.6068 26.5667 87.95 26.0069 89.0192 24.8875C90.1017 23.7681 90.643 22.379 90.643 20.7201C90.643 19.0342 90.1017 17.6383 89.0192 16.5324C87.95 15.413 86.6068 14.8533 84.9896 14.8533C83.3591 14.8533 82.0026 15.413 80.92 16.5324C79.8375 17.6383 79.2962 19.0342 79.2962 20.7201Z" fill="white"/>
<path d="M165.023 20.7201C165.023 17.7125 166.073 15.1702 168.171 13.0932C170.283 11.0027 172.849 9.95751 175.869 9.95751C177.807 9.91704 179.611 10.3823 181.282 11.3534C182.966 12.3245 184.289 13.6462 185.251 15.3186C186.227 16.9909 186.695 18.7914 186.655 20.7201C186.695 22.6487 186.227 24.4492 185.251 26.1216C184.289 27.7805 182.966 29.0955 181.282 30.0665C179.611 31.0376 177.807 31.5029 175.869 31.4624C173.864 31.4624 172.033 30.9904 170.376 30.0463C168.732 29.1022 167.422 27.8007 166.447 26.1418C165.498 24.4964 165.023 22.6892 165.023 20.7201ZM170.156 20.7201C170.156 22.379 170.697 23.7681 171.779 24.8875C172.889 26.0069 174.245 26.5667 175.849 26.5667C177.466 26.5667 178.809 26.0069 179.879 24.8875C180.961 23.7681 181.502 22.379 181.502 20.7201C181.502 19.0342 180.961 17.6383 179.879 16.5324C178.809 15.413 177.466 14.8533 175.849 14.8533C174.219 14.8533 172.862 15.413 171.779 16.5324C170.697 17.6383 170.156 19.0342 170.156 20.7201Z" fill="white"/>
<path d="M165.989 35.3691C167.587 36.7904 170.732 38.4131 174.386 38.8297C177.962 39.2373 181.892 38.4822 185.34 35.3782L188.4 38.8337C183.807 42.9686 178.502 43.9614 173.87 43.4333C169.317 42.9142 165.282 40.9176 162.949 38.8427L165.989 35.3691Z" fill="#FFC702"/>
<path d="M145.684 10.4658H162.99V14.4823H156.778V30.1831H151.695V14.4823H145.684V10.4658Z" fill="white"/>
<path d="M137.001 16.9977L127.089 30.1831H122.012V10.4658H127.089V23.3673L137.001 10.4658H142.118V30.1831H137.001V16.9977Z" fill="white"/>
<path d="M108.671 18.6611C109.709 18.6611 110.574 18.5258 111.266 18.2554C111.958 17.9578 112.304 17.3358 112.304 16.3891C112.304 15.8482 112.171 15.4289 111.905 15.1314C111.639 14.8069 111.28 14.577 110.827 14.4417C110.401 14.2794 109.882 14.1848 109.27 14.1577C108.684 14.1036 108.059 14.0766 107.394 14.0766H104.998V18.6611H108.671ZM104.998 26.5723H107.873C108.591 26.5723 109.27 26.5588 109.909 26.5318C110.548 26.5047 111.107 26.4236 111.586 26.2883C112.091 26.126 112.477 25.8961 112.743 25.5986C113.036 25.2741 113.183 24.8143 113.183 24.2192C113.183 23.6242 113.036 23.1644 112.743 22.8398C112.477 22.5153 112.091 22.2718 111.586 22.1096C111.107 21.9473 110.548 21.8526 109.909 21.8256C109.27 21.7985 108.591 21.785 107.873 21.785H104.998V26.5723ZM100.008 30.1831V10.4658H109.829C112.278 10.4658 114.141 10.9527 115.418 11.9264C116.696 12.873 117.335 14.1577 117.335 15.7806C117.335 16.5108 117.215 17.1194 116.975 17.6062C116.762 18.0931 116.456 18.4988 116.057 18.8234C115.658 19.1479 115.192 19.4184 114.66 19.6348C114.154 19.8241 113.608 19.9999 113.023 20.1622C113.741 20.2163 114.42 20.338 115.059 20.5273C115.698 20.7166 116.257 21.0006 116.736 21.3793C117.241 21.758 117.627 22.2448 117.893 22.8398C118.186 23.4078 118.333 24.0975 118.333 24.9089C118.333 26.5047 117.627 27.7894 116.217 28.7631C114.833 29.7098 112.863 30.1831 110.308 30.1831H100.008Z" fill="white"/>
<path d="M41.329 16.9977L31.4168 30.1831H26.3398V10.4658H31.4168V23.3673L41.329 10.4658H46.4463V30.1831H41.329V16.9977Z" fill="white"/>
<path d="M0 0.0488281H10.1778C11.802 0.0488281 12.5238 0.17652 13.7181 0.431904C14.9124 0.658913 15.993 1.07037 16.9598 1.66627C17.9266 2.23379 18.7086 3.01413 19.3057 4.00729C19.9313 5.00046 20.2441 6.26319 20.2441 7.7955C20.2441 9.41294 20.0046 10.7027 19.0203 12.0123C18.036 13.1583 17.0516 13.8131 15.7819 14.2653V14.3504C16.6918 14.4923 17.5307 14.7618 18.2985 15.1591C19.0947 15.528 19.7771 16.0246 20.3458 16.6488C20.943 17.2447 21.398 17.9683 21.7108 18.8196C22.052 19.6425 22.2226 20.5647 22.2226 21.5863C22.2226 23.0902 21.924 24.3813 21.3269 25.4596C20.7297 26.5379 19.9051 27.4318 18.853 28.1412C17.8293 28.8222 16.6207 29.333 15.2274 29.6735C13.8625 30.014 12.398 30.1842 10.8341 30.1842H0V0.0488281ZM5.45968 12.1927H9.62334C10.3342 12.1927 11.0025 12.1218 11.6281 11.9799C12.2537 11.8096 12.8235 11.6696 13.2784 11.3575C13.7618 11.017 14.0987 10.7724 14.3579 10.3068C14.6423 9.79602 14.7844 9.17174 14.7844 8.43397C14.7844 7.07191 14.2584 6.09294 13.2063 5.49704C12.1826 4.87276 10.8176 4.56063 9.1115 4.56063H5.45968V12.1927ZM5.45968 25.5873H10.1942C10.9904 25.5873 11.7724 25.5164 12.5402 25.3745C13.308 25.2326 13.9904 24.9914 14.5876 24.6509C15.1847 24.3104 15.6681 23.8564 16.0378 23.2889C16.4075 22.693 16.5923 21.9694 16.5923 21.1181C16.5923 19.5574 16.0378 18.4365 14.9288 17.7555C13.8482 17.0745 12.3412 16.734 10.4075 16.734H5.45968V25.5873Z" fill="white"/>
<path d="M59.5356 10.4658H63.4288L70.1481 25.7668H72.7771V33.2559H68.1725V29.532H54.5548V33.2559H49.8711V25.7668H52.5001L59.5356 10.4658ZM57.2431 25.7668H65.4051L61.334 16.1136L57.2431 25.7668Z" fill="white"/>
<path d="M133.18 45.5879H134.504V48.0812H136.241C136.883 48.0812 137.399 48.2704 137.787 48.6487C138.176 49.0271 138.37 49.5244 138.37 50.1409C138.37 50.7615 138.176 51.261 137.787 51.6394C137.399 52.0177 136.883 52.2069 136.241 52.2069H133.18V45.5879ZM136.101 51.0336C136.406 51.0336 136.642 50.9528 136.811 50.7913C136.98 50.6297 137.065 50.4044 137.065 50.1154C137.065 49.839 136.98 49.6201 136.811 49.4586C136.642 49.297 136.406 49.2162 136.101 49.2162H134.504V51.0336H136.101Z" fill="white"/>
<path d="M124.961 50.9507H125.17C125.31 50.9507 125.438 50.9401 125.557 50.9188C125.679 50.8976 125.789 50.8338 125.886 50.7275C125.988 50.617 126.074 50.4512 126.146 50.2301C126.222 50.0091 126.286 49.7009 126.336 49.3055C126.391 48.9059 126.431 48.4043 126.457 47.8006C126.482 47.1927 126.495 46.4551 126.495 45.5879H130.944V52.2069H129.626V46.8377H127.756C127.756 47.6412 127.733 48.332 127.686 48.9102C127.644 49.4883 127.581 49.9751 127.496 50.3704C127.416 50.7658 127.31 51.0867 127.179 51.3333C127.052 51.5756 126.905 51.7605 126.736 51.8881C126.567 52.0156 126.376 52.1006 126.165 52.1431C125.954 52.1857 125.721 52.2069 125.468 52.2069H124.961V50.9507Z" fill="white"/>
<path d="M121.328 52.2823C120.973 52.2823 120.635 52.2313 120.314 52.1293C120.166 52.0825 120.006 52.0081 119.832 51.9061C119.676 51.8381 119.522 51.7382 119.37 51.6064C119.082 51.3428 118.856 50.9985 118.691 50.5734C118.501 50.1568 118.406 49.6041 118.406 48.9154C118.406 48.2438 118.489 47.6996 118.653 47.283C118.827 46.8196 119.038 46.471 119.287 46.2372C119.541 45.9864 119.834 45.7994 120.168 45.6761C120.481 45.5613 120.798 45.5039 121.119 45.5039C121.871 45.5209 122.507 45.7696 123.027 46.25C123.546 46.7389 123.815 47.4233 123.832 48.3033V49.4001H119.731C119.731 49.9315 119.883 50.3353 120.187 50.6116C120.479 50.8922 120.851 51.0325 121.303 51.0325C121.839 51.0325 122.319 50.8178 122.741 50.3885L123.705 51.2111C123.02 51.9338 122.228 52.2908 121.328 52.2823ZM122.507 48.3033C122.49 47.7974 122.353 47.4084 122.095 47.1363C121.841 46.8855 121.516 46.7601 121.119 46.7601C120.722 46.7601 120.396 46.8855 120.143 47.1363C119.894 47.4084 119.756 47.7974 119.731 48.3033H122.507Z" fill="white"/>
<path d="M114.078 52.2829C113.41 52.2829 112.867 52.1278 112.449 51.8174C112.031 51.5029 111.735 51.0841 111.562 50.5612C111.507 50.4124 111.467 50.2424 111.441 50.0511C111.416 49.8598 111.395 49.66 111.378 49.4517C111.361 49.2434 111.35 49.0351 111.346 48.8268C111.342 48.6142 111.34 48.4165 111.34 48.2337V47.73C111.34 47.3729 111.346 47.0264 111.359 46.6906C111.372 46.3547 111.41 46.0359 111.473 45.7341C111.541 45.428 111.638 45.1453 111.764 44.886C111.895 44.6224 112.073 44.3843 112.297 44.1718C112.479 44.0102 112.671 43.8784 112.874 43.7764C113.081 43.6744 113.294 43.5957 113.514 43.5405C113.733 43.4852 113.955 43.4427 114.179 43.4129C114.403 43.3832 114.625 43.3534 114.845 43.3237C114.98 43.3067 115.09 43.2663 115.174 43.2025C115.263 43.1387 115.318 43.041 115.339 42.9092H116.689C116.617 43.8742 116.171 44.4226 115.352 44.5544C115.14 44.5884 114.931 44.616 114.724 44.6373C114.517 44.6585 114.312 44.6904 114.11 44.7329C113.907 44.7712 113.714 44.8286 113.533 44.9051C113.351 44.9774 113.182 45.0815 113.026 45.2175C112.827 45.4003 112.681 45.6193 112.588 45.8743C112.5 46.1252 112.451 46.359 112.443 46.5758H112.481C112.629 46.3165 112.867 46.0954 113.197 45.9126C113.531 45.7298 113.919 45.6384 114.363 45.6384C115.229 45.6384 115.855 45.9232 116.239 46.4929C116.624 47.0625 116.816 47.8745 116.816 48.9288C116.816 49.5027 116.763 49.9937 116.657 50.4018C116.556 50.8057 116.383 51.1543 116.138 51.4476C115.914 51.7197 115.629 51.928 115.282 52.0725C114.936 52.2128 114.534 52.2829 114.078 52.2829ZM114.065 50.963C114.289 50.963 114.492 50.9226 114.674 50.8418C114.855 50.761 115.007 50.6463 115.13 50.4975C115.278 50.3232 115.375 50.1127 115.421 49.8662C115.468 49.6154 115.491 49.3114 115.491 48.9543C115.491 48.5887 115.468 48.2762 115.421 48.0169C115.375 47.7534 115.278 47.5344 115.13 47.3601C115.007 47.2198 114.855 47.1114 114.674 47.0349C114.492 46.9584 114.289 46.9201 114.065 46.9201C113.841 46.9201 113.638 46.9605 113.457 47.0413C113.275 47.1221 113.127 47.2368 113.013 47.3856C112.865 47.5599 112.77 47.7789 112.728 48.0424C112.686 48.3017 112.664 48.6142 112.664 48.9798C112.664 49.3964 112.698 49.728 112.766 49.9746C112.833 50.2169 112.941 50.4167 113.089 50.574C113.212 50.6973 113.357 50.7929 113.526 50.8609C113.695 50.929 113.875 50.963 114.065 50.963Z" fill="white"/>
<path d="M107.043 52.2823C106.688 52.2823 106.35 52.2313 106.029 52.1293C105.881 52.0825 105.72 52.0081 105.547 51.9061C105.391 51.8381 105.237 51.7382 105.084 51.6064C104.797 51.3428 104.571 50.9985 104.406 50.5734C104.216 50.1568 104.121 49.6041 104.121 48.9154C104.121 48.2438 104.203 47.6996 104.368 47.283C104.542 46.8196 104.753 46.471 105.002 46.2372C105.256 45.9864 105.549 45.7994 105.883 45.6761C106.196 45.5613 106.513 45.5039 106.834 45.5039C107.586 45.5209 108.222 45.7696 108.741 46.25C109.261 46.7389 109.529 47.4233 109.546 48.3033V49.4001H105.446C105.446 49.9315 105.598 50.3353 105.902 50.6116C106.194 50.8922 106.565 51.0325 107.018 51.0325C107.554 51.0325 108.034 50.8178 108.456 50.3885L109.42 51.2111C108.735 51.9338 107.943 52.2908 107.043 52.2823ZM108.222 48.3033C108.205 47.7974 108.068 47.4084 107.81 47.1363C107.556 46.8855 107.231 46.7601 106.834 46.7601C106.437 46.7601 106.111 46.8855 105.858 47.1363C105.608 47.4084 105.471 47.7974 105.446 48.3033H108.222Z" fill="white"/>
<path d="M95.6719 45.5879H96.9838L98.9549 49.5287L100.92 45.5879H102.213V52.2069H100.888V47.96L99.3732 50.9953H98.543L96.9965 47.96V52.2069H95.6719V45.5879Z" fill="white"/>
<path d="M84.3438 50.9507H84.6416C84.8233 50.9507 84.967 50.9273 85.0726 50.8806C85.1825 50.8338 85.2691 50.7403 85.3325 50.6L85.5796 50.0261C85.6219 49.9028 85.6726 49.7965 85.7318 49.7072C85.7951 49.6137 85.886 49.5287 86.0043 49.4522C85.5902 49.3799 85.2606 49.1759 85.0156 48.84C84.7747 48.4999 84.6543 48.0812 84.6543 47.5838C84.6543 46.9589 84.8466 46.47 85.2311 46.1172C85.6198 45.7643 86.1416 45.5879 86.7965 45.5879H89.8071V52.2069H88.4824V49.6626H87.95C87.6331 49.6626 87.3986 49.7115 87.2465 49.8093C87.0944 49.9028 86.9571 50.0962 86.8346 50.3896L86.5367 51.1229C86.4606 51.3227 86.374 51.4906 86.2768 51.6266C86.1839 51.7627 86.0761 51.8753 85.9536 51.9646C85.8311 52.0496 85.6853 52.1113 85.5163 52.1495C85.3515 52.1878 85.155 52.2069 84.9268 52.2069H84.3438V50.9507ZM88.4824 48.5658V46.7867H86.9423C86.6127 46.7867 86.3656 46.8675 86.2008 47.029C86.036 47.1906 85.9536 47.4095 85.9536 47.6858C85.9536 48.2725 86.2832 48.5658 86.9423 48.5658H88.4824Z" fill="white"/>
<path d="M79.6854 52.283C78.9586 52.2745 78.3925 52.0789 77.9868 51.6963C77.5685 51.3222 77.3594 50.844 77.3594 50.2616C77.3594 49.7047 77.5411 49.2434 77.9044 48.8778C78.2594 48.5122 78.7917 48.3209 79.5016 48.3039H81.3333V47.6089C81.3417 47.0265 80.8917 46.7438 79.9833 46.7608C79.6706 46.7608 79.4108 46.7948 79.2037 46.8628C79.0051 46.9436 78.8488 47.0796 78.7347 47.2709L77.6953 46.4738C78.1981 45.8106 78.9396 45.4875 79.9199 45.5045C80.7481 45.496 81.4093 45.6533 81.9037 45.9764C82.3896 46.2995 82.641 46.8692 82.6579 47.6854V52.2065H81.3333V51.6198H81.3079C81.1854 51.8451 80.9952 52.0109 80.7375 52.1172C80.5009 52.2277 80.1502 52.283 79.6854 52.283ZM79.8502 51.0331C80.4079 51.0502 80.7988 50.9843 81.0227 50.8355C81.2297 50.6952 81.3333 50.3763 81.3333 49.879V49.4007H79.7488C78.9713 49.4177 78.591 49.6834 78.6079 50.1978C78.6079 50.4231 78.7072 50.6144 78.9058 50.7717C79.1044 50.946 79.4192 51.0331 79.8502 51.0331Z" fill="white"/>
<path d="M70.7656 45.5879H72.0903V48.1832H72.7114C72.948 48.1832 73.1445 48.1322 73.3008 48.0302C73.4614 47.9239 73.5776 47.7794 73.6494 47.5966L73.9599 46.7102C74.0994 46.3106 74.2895 46.0236 74.5304 45.8493C74.7712 45.675 75.1092 45.5879 75.5444 45.5879H75.9817V46.7867H75.7916C75.6606 46.7867 75.5508 46.7931 75.462 46.8058C75.3775 46.8186 75.3057 46.8462 75.2465 46.8887C75.1916 46.927 75.1451 46.9823 75.1071 47.0545C75.0691 47.1268 75.0289 47.2246 74.9867 47.3479L74.7649 48.0047C74.6973 48.2045 74.6001 48.3618 74.4733 48.4765C74.3466 48.5871 74.2092 48.6678 74.0614 48.7189C74.2895 48.7911 74.4712 48.8995 74.6064 49.0441C74.7459 49.1844 74.8642 49.3757 74.9613 49.618L75.2719 50.4278C75.3142 50.5426 75.3543 50.6361 75.3923 50.7084C75.4303 50.7764 75.4747 50.8295 75.5254 50.8678C75.5803 50.9061 75.6437 50.9337 75.7156 50.9507C75.7916 50.9677 75.8909 50.9762 76.0134 50.9762H76.3113V52.2069H75.8296C75.3522 52.2069 74.9867 52.1176 74.7332 51.9391C74.4839 51.7605 74.279 51.4545 74.1184 51.0208L73.7508 50.0771C73.6916 49.9198 73.6177 49.8008 73.529 49.72C73.4445 49.635 73.3515 49.5712 73.2501 49.5287C73.1529 49.4862 73.0515 49.4607 72.9459 49.4522C72.8445 49.4437 72.7409 49.4394 72.6353 49.4394H72.0903V52.2069H70.7656V45.5879Z" fill="white"/>
<path d="M64.9766 45.5879H69.2483V46.8377H66.3012V52.2069H64.9766V45.5879Z" fill="white"/>
<path d="M60.5624 52.2823C60.2075 52.2823 59.8695 52.2313 59.5483 52.1293C59.4005 52.0825 59.2399 52.0081 59.0667 51.9061C58.9103 51.8381 58.7561 51.7382 58.604 51.6064C58.3167 51.3428 58.0906 50.9985 57.9258 50.5734C57.7357 50.1568 57.6406 49.6041 57.6406 48.9154C57.6406 48.2438 57.723 47.6996 57.8878 47.283C58.061 46.8196 58.2723 46.471 58.5216 46.2372C58.7751 45.9864 59.0688 45.7994 59.4026 45.6761C59.7152 45.5613 60.0321 45.5039 60.3533 45.5039C61.1054 45.5209 61.7413 45.7696 62.261 46.25C62.7807 46.7389 63.049 47.4233 63.0659 48.3033V49.4001H58.9653C58.9653 49.9315 59.1174 50.3353 59.4216 50.6116C59.7131 50.8922 60.085 51.0325 60.5371 51.0325C61.0737 51.0325 61.5532 50.8178 61.9758 50.3885L62.9391 51.2111C62.2546 51.9338 61.4624 52.2908 60.5624 52.2823ZM61.7413 48.3033C61.7244 47.7974 61.587 47.4084 61.3293 47.1363C61.0758 46.8855 60.7504 46.7601 60.3533 46.7601C59.9561 46.7601 59.6307 46.8855 59.3772 47.1363C59.1279 47.4084 58.9906 47.7974 58.9653 48.3033H61.7413Z" fill="white"/>
<path d="M49.7461 50.9507H49.9552C50.0947 50.9507 50.2236 50.9401 50.3419 50.9188C50.4644 50.8976 50.5743 50.8338 50.6714 50.7275C50.7728 50.617 50.8595 50.4512 50.9313 50.2301C51.0073 50.0091 51.0707 49.7009 51.1214 49.3055C51.1764 48.9059 51.2165 48.4043 51.2418 47.8006C51.2672 47.1927 51.2799 46.4551 51.2799 45.5879H55.7291V52.2069H54.4108V46.8377H52.5411C52.5411 47.6412 52.5179 48.332 52.4714 48.9102C52.4292 49.4883 52.3658 49.9751 52.2813 50.3704C52.201 50.7658 52.0954 51.0867 51.9644 51.3333C51.8376 51.5756 51.6897 51.7605 51.5207 51.8881C51.3517 52.0156 51.1616 52.1006 50.9503 52.1431C50.739 52.1857 50.5066 52.2069 50.2531 52.2069H49.7461V50.9507Z" fill="white"/>
</svg>
